<?xml version="1.0" encoding="UTF-8"?>
<svg xmlns="http://www.w3.org/2000/svg" viewBox="0 0 600 400" width="600" height="400" role="img" aria-label="Replying to a Business Email">
  <defs><linearGradient id="bg" x1="0" y1="0" x2="0" y2="1"><stop offset="0" stop-color="#e7ecf6"/><stop offset="1" stop-color="#c4d2ec"/></linearGradient></defs>
  <rect x="0" y="0" width="600" height="400" rx="24" fill="url(#bg)"/>
  <circle cx="300" cy="170" r="138" fill="#ffffff" opacity="0.35"/>
  <g transform="translate(300,172)">
          <ellipse cx="0" cy="92" rx="150" ry="20" fill="#000000" opacity="0.07"/>
          <rect x="-110" y="-66" width="220" height="150" rx="14" fill="#f7fbff" stroke="#1d3b5b" stroke-width="4"/>
          <path d="M-110 -58 L0 24 L110 -58" fill="none" stroke="#1d3b5b" stroke-width="4"/>
          <path d="M-110 80 L-18 6 M110 80 L18 6" stroke="#2f3e50" stroke-width="3" opacity="0.5"/>
          <g transform="translate(78,70)"><path d="M0 -26 a14 14 0 0 1 28 0 v34 a22 22 0 0 1 -44 0 v-30" fill="none" stroke="#5a76c4" stroke-width="6" stroke-linecap="round"/></g>
        </g>
  <rect x="0" y="318" width="600" height="82" fill="#1d3b5b" opacity="0.92"/>
  <text x="32" y="352" font-family="'Segoe UI','Hiragino Kaku Gothic ProN','Yu Gothic',sans-serif" font-size="26" font-weight="700" fill="#ffffff">Replying to a Business Email</text>
  <text x="32" y="380" font-family="'Hiragino Kaku Gothic ProN','Yu Gothic',sans-serif" font-size="17" fill="#cfe0f2">ビジネスメールに返信する</text>
  <g transform="translate(483,30)"><rect x="0" y="-20" width="89" height="30" rx="15" fill="#ffffff" opacity="0.85"/>
    <text x="44.5" y="0" text-anchor="middle" font-family="'Segoe UI',sans-serif" font-size="13" font-weight="700" fill="#5a76c4">Business</text></g>
  <text x="300" y="300" text-anchor="middle" font-family="'Hiragino Kaku Gothic ProN',sans-serif" font-size="12" fill="#1d3b5b" opacity="0.5">差し替え用プレースホルダー / replace freely</text>
</svg>
