<?xml version="1.0" encoding="UTF-8"?>
<svg xmlns="http://www.w3.org/2000/svg" viewBox="0 0 600 400" width="600" height="400" role="img" aria-label="On the Phone">
  <defs><linearGradient id="bg" x1="0" y1="0" x2="0" y2="1"><stop offset="0" stop-color="#e7ecf6"/><stop offset="1" stop-color="#c4d2ec"/></linearGradient></defs>
  <rect x="0" y="0" width="600" height="400" rx="24" fill="url(#bg)"/>
  <circle cx="300" cy="170" r="138" fill="#ffffff" opacity="0.35"/>
  <g transform="translate(300,168)">
          <ellipse cx="0" cy="96" rx="150" ry="20" fill="#000000" opacity="0.07"/>
          <path d="M-86 -70 Q-86 -96 -60 -96 H60 Q86 -96 86 -70 V-40 Q86 -14 60 -14 H10 L-14 12 L-10 -14 H-60 Q-86 -14 -86 -40 Z" fill="#5a76c4" stroke="#1d3b5b" stroke-width="4" stroke-linejoin="round"/>
          <circle cx="-34" cy="-55" r="6" fill="#f7fbff"/><circle cx="0" cy="-55" r="6" fill="#f7fbff"/><circle cx="34" cy="-55" r="6" fill="#f7fbff"/>
          <g transform="translate(-2,70)">
            <path d="M-70 -6 a70 70 0 0 1 140 0 v10 a14 14 0 0 1 -28 0 v-10 a42 42 0 0 0 -84 0 v10 a14 14 0 0 1 -28 0 Z" fill="#f7fbff" stroke="#1d3b5b" stroke-width="4" stroke-linejoin="round"/>
          </g>
        </g>
  <rect x="0" y="318" width="600" height="82" fill="#1d3b5b" opacity="0.92"/>
  <text x="32" y="352" font-family="'Segoe UI','Hiragino Kaku Gothic ProN','Yu Gothic',sans-serif" font-size="26" font-weight="700" fill="#ffffff">On the Phone</text>
  <text x="32" y="380" font-family="'Hiragino Kaku Gothic ProN','Yu Gothic',sans-serif" font-size="17" fill="#cfe0f2">電話応対の基本</text>
  <g transform="translate(483,30)"><rect x="0" y="-20" width="89" height="30" rx="15" fill="#ffffff" opacity="0.85"/>
    <text x="44.5" y="0" text-anchor="middle" font-family="'Segoe UI',sans-serif" font-size="13" font-weight="700" fill="#5a76c4">Business</text></g>
  <text x="300" y="300" text-anchor="middle" font-family="'Hiragino Kaku Gothic ProN',sans-serif" font-size="12" fill="#1d3b5b" opacity="0.5">差し替え用プレースホルダー / replace freely</text>
</svg>
