<?xml version="1.0" encoding="UTF-8"?>
<svg xmlns="http://www.w3.org/2000/svg" viewBox="0 0 600 400" width="600" height="400" role="img" aria-label="Self-Introduction at Work">
  <defs>
    <linearGradient id="bg" x1="0" y1="0" x2="0" y2="1">
      <stop offset="0" stop-color="#e7ecf6"/><stop offset="1" stop-color="#c4d2ec"/>
    </linearGradient>
  </defs>
  <rect x="0" y="0" width="600" height="400" rx="24" fill="url(#bg)"/>
  <circle cx="300" cy="170" r="138" fill="#ffffff" opacity="0.35"/>
  
        <g transform="translate(300,170)">
          <ellipse cx="0" cy="96" rx="150" ry="20" fill="#000000" opacity="0.07"/>
          <rect x="-95" y="-30" width="190" height="118" rx="16" fill="#f7fbff" stroke="#1d3b5b" stroke-width="4"/>
          <path d="M-40 -30 V-46 Q-40 -58 -28 -58 H28 Q40 -58 40 -46 V-30" fill="none" stroke="#1d3b5b" stroke-width="4"/>
          <rect x="-95" y="20" width="190" height="16" fill="#5a76c4" opacity="0.5"/>
          <rect x="-22" y="14" width="44" height="28" rx="6" fill="#5a76c4" stroke="#1d3b5b" stroke-width="3"/>
          <g transform="translate(70,-78)">
            <path d="M-58 -34 H58 Q74 -34 74 -18 V6 Q74 22 58 22 H10 L-10 44 L-6 22 H-58 Q-74 22 -74 6 V-18 Q-74 -34 -58 -34 Z" fill="#5a76c4" stroke="#1d3b5b" stroke-width="4" stroke-linejoin="round"/>
            <circle cx="-30" cy="-6" r="6" fill="#f7fbff"/><circle cx="0" cy="-6" r="6" fill="#f7fbff"/><circle cx="30" cy="-6" r="6" fill="#f7fbff"/>
          </g>
        </g>
  <!-- caption bar -->
  <rect x="0" y="318" width="600" height="82" fill="#1d3b5b" opacity="0.92"/>
  <text x="32" y="352" font-family="'Segoe UI','Hiragino Kaku Gothic ProN','Yu Gothic',sans-serif" font-size="26" font-weight="700" fill="#ffffff">Self-Introduction at Work</text>
  <text x="32" y="380" font-family="'Hiragino Kaku Gothic ProN','Yu Gothic',sans-serif" font-size="17" fill="#cfe0f2">職場での自己紹介</text>
  <!-- theme tag (width fits the label, right-aligned) -->
  <g transform="translate(483,30)">
    <rect x="0" y="-20" width="89" height="30" rx="15" fill="#ffffff" opacity="0.85"/>
    <text x="44.5" y="0" text-anchor="middle" font-family="'Segoe UI',sans-serif" font-size="13" font-weight="700" fill="#5a76c4">Business</text>
  </g>
  <!-- placeholder note -->
  <text x="300" y="300" text-anchor="middle" font-family="'Hiragino Kaku Gothic ProN',sans-serif" font-size="12" fill="#1d3b5b" opacity="0.5">差し替え用プレースホルダー / replace freely</text>
</svg>
