<?xml version="1.0" encoding="UTF-8"?>
<svg xmlns="http://www.w3.org/2000/svg" viewBox="0 0 600 400" width="600" height="400" role="img" aria-label="Giving a Short Presentation">
  <defs><linearGradient id="bg" x1="0" y1="0" x2="0" y2="1"><stop offset="0" stop-color="#e7ecf6"/><stop offset="1" stop-color="#c4d2ec"/></linearGradient></defs>
  <rect x="0" y="0" width="600" height="400" rx="24" fill="url(#bg)"/>
  <circle cx="300" cy="170" r="138" fill="#ffffff" opacity="0.35"/>
  <g transform="translate(300,168)">
          <ellipse cx="0" cy="104" rx="150" ry="20" fill="#000000" opacity="0.07"/>
          <rect x="-120" y="-86" width="240" height="150" rx="12" fill="#f7fbff" stroke="#1d3b5b" stroke-width="4"/>
          <line x1="0" y1="64" x2="0" y2="96" stroke="#1d3b5b" stroke-width="6"/>
          <line x1="-40" y1="96" x2="40" y2="96" stroke="#1d3b5b" stroke-width="6" stroke-linecap="round"/>
          <g fill="#5a76c4" stroke="#1d3b5b" stroke-width="3">
            <rect x="-86" y="-6" width="34" height="56"/><rect x="-34" y="-34" width="34" height="84"/>
            <rect x="18" y="-58" width="34" height="108"/></g>
          <path d="M-86 6 L-16 -28 L36 -52 L86 -70" fill="none" stroke="#e0726a" stroke-width="4"/>
          <polygon points="86,-70 78,-58 92,-58" fill="#e0726a"/>
        </g>
  <rect x="0" y="318" width="600" height="82" fill="#1d3b5b" opacity="0.92"/>
  <text x="32" y="352" font-family="'Segoe UI','Hiragino Kaku Gothic ProN','Yu Gothic',sans-serif" font-size="26" font-weight="700" fill="#ffffff">Giving a Short Presentation</text>
  <text x="32" y="380" font-family="'Hiragino Kaku Gothic ProN','Yu Gothic',sans-serif" font-size="17" fill="#cfe0f2">短いプレゼンをする</text>
  <g transform="translate(483,30)"><rect x="0" y="-20" width="89" height="30" rx="15" fill="#ffffff" opacity="0.85"/>
    <text x="44.5" y="0" text-anchor="middle" font-family="'Segoe UI',sans-serif" font-size="13" font-weight="700" fill="#5a76c4">Business</text></g>
  <text x="300" y="300" text-anchor="middle" font-family="'Hiragino Kaku Gothic ProN',sans-serif" font-size="12" fill="#1d3b5b" opacity="0.5">差し替え用プレースホルダー / replace freely</text>
</svg>
