<?xml version="1.0" encoding="UTF-8"?>
<svg xmlns="http://www.w3.org/2000/svg" viewBox="0 0 600 400" width="600" height="400" role="img" aria-label="Networking Small Talk">
  <defs><linearGradient id="bg" x1="0" y1="0" x2="0" y2="1"><stop offset="0" stop-color="#e7ecf6"/><stop offset="1" stop-color="#c4d2ec"/></linearGradient></defs>
  <rect x="0" y="0" width="600" height="400" rx="24" fill="url(#bg)"/>
  <circle cx="300" cy="170" r="138" fill="#ffffff" opacity="0.35"/>
  <g transform="translate(300,172)">
      <ellipse cx="0" cy="92" rx="150" ry="20" fill="#000000" opacity="0.07"/>
      <g transform="rotate(-12)"><rect x="-120" y="-30" width="120" height="74" rx="10" fill="#f7fbff" stroke="#1d3b5b" stroke-width="4"/>
        <line x1="-104" y1="-8" x2="-30" y2="-8" stroke="#5a76c4" stroke-width="5"/><line x1="-104" y1="8" x2="-46" y2="8" stroke="#2f3e50" stroke-width="3"/><line x1="-104" y1="22" x2="-58" y2="22" stroke="#2f3e50" stroke-width="3"/></g>
      <g transform="rotate(12)"><rect x="6" y="-44" width="120" height="74" rx="10" fill="#f7fbff" stroke="#1d3b5b" stroke-width="4"/>
        <line x1="22" y1="-22" x2="96" y2="-22" stroke="#5a76c4" stroke-width="5"/><line x1="22" y1="-6" x2="80" y2="-6" stroke="#2f3e50" stroke-width="3"/><line x1="22" y1="8" x2="92" y2="8" stroke="#2f3e50" stroke-width="3"/></g>
    </g>
  <rect x="0" y="318" width="600" height="82" fill="#1d3b5b" opacity="0.92"/>
  <text x="32" y="352" font-family="'Segoe UI','Hiragino Kaku Gothic ProN','Yu Gothic',sans-serif" font-size="26" font-weight="700" fill="#ffffff">Networking Small Talk</text>
  <text x="32" y="380" font-family="'Hiragino Kaku Gothic ProN','Yu Gothic',sans-serif" font-size="17" fill="#cfe0f2">名刺交換と雑談</text>
  <g transform="translate(483,30)"><rect x="0" y="-20" width="89" height="30" rx="15" fill="#ffffff" opacity="0.85"/>
    <text x="44.5" y="0" text-anchor="middle" font-family="'Segoe UI',sans-serif" font-size="13" font-weight="700" fill="#5a76c4">Business</text></g>
  <text x="300" y="300" text-anchor="middle" font-family="'Hiragino Kaku Gothic ProN',sans-serif" font-size="12" fill="#1d3b5b" opacity="0.5">差し替え用プレースホルダー / replace freely</text>
</svg>
