<?xml version="1.0" encoding="UTF-8"?>
<svg xmlns="http://www.w3.org/2000/svg" viewBox="0 0 600 400" width="600" height="400" role="img" aria-label="Explaining Japanese New Year">
  <defs>
    <linearGradient id="bg" x1="0" y1="0" x2="0" y2="1">
      <stop offset="0" stop-color="#f6e2e6"/><stop offset="1" stop-color="#edc1cb"/>
    </linearGradient>
  </defs>
  <rect x="0" y="0" width="600" height="400" rx="24" fill="url(#bg)"/>
  <circle cx="300" cy="170" r="138" fill="#ffffff" opacity="0.35"/>
  
    <g transform="translate(300,168)">
      <circle cx="60" cy="-44" r="40" fill="#c1556a" opacity="0.65"/>
      <path d="M-150 90 L-40 -40 L40 56 L96 -8 L160 90 Z" fill="#f7fbff" stroke="#9dc9ed" stroke-width="3" stroke-linejoin="round"/>
      <path d="M-70 6 L-40 -40 L-8 6 Z" fill="#ffffff" stroke="#9dc9ed" stroke-width="2"/>
      <g fill="#c1556a" stroke="#1d3b5b" stroke-width="4" stroke-linejoin="round">
        <path d="M-104 -64 Q0 -86 104 -64 L96 -46 Q0 -64 -96 -46 Z"/>
        <rect x="-86" y="-42" width="172" height="14"/>
        <rect x="-72" y="-28" width="16" height="118"/>
        <rect x="56" y="-28" width="16" height="118"/>
      </g>
    </g>
  <!-- caption bar -->
  <rect x="0" y="318" width="600" height="82" fill="#1d3b5b" opacity="0.92"/>
  <text x="32" y="352" font-family="'Segoe UI','Hiragino Kaku Gothic ProN','Yu Gothic',sans-serif" font-size="26" font-weight="700" fill="#ffffff">Explaining Japanese New Year</text>
  <text x="32" y="380" font-family="'Hiragino Kaku Gothic ProN','Yu Gothic',sans-serif" font-size="17" fill="#cfe0f2">お正月を説明する</text>
  <!-- theme tag (width fits the label, right-aligned) -->
  <g transform="translate(417,30)">
    <rect x="0" y="-20" width="155" height="30" rx="15" fill="#ffffff" opacity="0.85"/>
    <text x="77.5" y="0" text-anchor="middle" font-family="'Segoe UI',sans-serif" font-size="13" font-weight="700" fill="#c1556a">Japanese Culture</text>
  </g>
  <!-- placeholder note -->
  <text x="300" y="300" text-anchor="middle" font-family="'Hiragino Kaku Gothic ProN',sans-serif" font-size="12" fill="#1d3b5b" opacity="0.5">差し替え用プレースホルダー / replace freely</text>
</svg>
