<?xml version="1.0" encoding="UTF-8"?>
<svg xmlns="http://www.w3.org/2000/svg" viewBox="0 0 600 400" width="600" height="400" role="img" aria-label="The Subjunctive (If I were...)">
  <defs><linearGradient id="bg" x1="0" y1="0" x2="0" y2="1"><stop offset="0" stop-color="#e9e3f6"/><stop offset="1" stop-color="#cdbfe9"/></linearGradient></defs>
  <rect x="0" y="0" width="600" height="400" rx="24" fill="url(#bg)"/>
  <circle cx="300" cy="170" r="138" fill="#ffffff" opacity="0.35"/>
  <g transform="translate(256,170)"><ellipse cx="44" cy="70" rx="170" ry="20" fill="#000000" opacity="0.07"/><g transform="translate(-150,0)"><rect x="0" y="-34" width="62" height="62" rx="10" fill="#f7fbff" stroke="#1d3b5b" stroke-width="4"/><text x="31" y="10" text-anchor="middle" font-family="Segoe UI,sans-serif" font-size="34" font-weight="800" fill="#7a5ec4">S</text></g><g transform="translate(-78,0)"><rect x="0" y="-34" width="62" height="62" rx="10" fill="#f7fbff" stroke="#1d3b5b" stroke-width="4"/><text x="31" y="10" text-anchor="middle" font-family="Segoe UI,sans-serif" font-size="34" font-weight="800" fill="#7a5ec4">V</text></g><g transform="translate(-6,0)"><rect x="0" y="-34" width="62" height="62" rx="10" fill="#f7fbff" stroke="#1d3b5b" stroke-width="4"/><text x="31" y="10" text-anchor="middle" font-family="Segoe UI,sans-serif" font-size="34" font-weight="800" fill="#7a5ec4">O</text></g><g transform="translate(66,0)"><rect x="0" y="-34" width="62" height="62" rx="10" fill="#f7fbff" stroke="#1d3b5b" stroke-width="4"/><text x="31" y="10" text-anchor="middle" font-family="Segoe UI,sans-serif" font-size="34" font-weight="800" fill="#7a5ec4">C</text></g><path d="M-120 44 H150" stroke="#7a5ec4" stroke-width="4" stroke-dasharray="2 8" stroke-linecap="round" opacity="0.6"/></g>
  <rect x="0" y="318" width="600" height="82" fill="#1d3b5b" opacity="0.92"/>
  <text x="32" y="352" font-family="'Segoe UI','Hiragino Kaku Gothic ProN','Yu Gothic',sans-serif" font-size="26" font-weight="700" fill="#ffffff">The Subjunctive (If I were...)</text>
  <text x="32" y="380" font-family="'Hiragino Kaku Gothic ProN','Yu Gothic',sans-serif" font-size="17" fill="#cfe0f2">仮定法</text>
  <g transform="translate(434,30)"><rect x="0" y="-20" width="138" height="30" rx="15" fill="#ffffff" opacity="0.85"/>
    <text x="69.0" y="0" text-anchor="middle" font-family="'Segoe UI',sans-serif" font-size="13" font-weight="700" fill="#7a5ec4">Grammar Basics</text></g>
  <text x="300" y="300" text-anchor="middle" font-family="'Hiragino Kaku Gothic ProN',sans-serif" font-size="12" fill="#1d3b5b" opacity="0.5">差し替え用プレースホルダー / replace freely</text>
</svg>
