<?xml version="1.0" encoding="UTF-8"?>
<svg xmlns="http://www.w3.org/2000/svg" viewBox="0 0 900 600" width="900" height="600" role="img" aria-label="Present simple habit chart">
  <defs>
    <linearGradient id="bg" x1="0" y1="0" x2="1" y2="1">
      <stop offset="0" stop-color="#e8f3f0"/>
      <stop offset="1" stop-color="#fff1df"/>
    </linearGradient>
  </defs>
  <rect width="900" height="600" fill="url(#bg)"/>
  <rect x="130" y="95" width="640" height="405" rx="28" fill="#fff" stroke="#eadfce" stroke-width="5"/>
  <line x1="130" y1="185" x2="770" y2="185" stroke="#eadfce" stroke-width="5"/>
  <line x1="130" y1="285" x2="770" y2="285" stroke="#eadfce" stroke-width="5"/>
  <line x1="130" y1="385" x2="770" y2="385" stroke="#eadfce" stroke-width="5"/>
  <line x1="330" y1="95" x2="330" y2="500" stroke="#eadfce" stroke-width="5"/>
  <g font-family="Arial, sans-serif" fill="#2d2a26">
    <text x="195" y="150" font-size="38" font-weight="700">Habits</text>
    <text x="385" y="150" font-size="34" font-weight="700">Present Simple</text>
    <text x="180" y="245" font-size="30">I</text>
    <text x="385" y="245" font-size="32">study English.</text>
    <text x="180" y="345" font-size="30">She</text>
    <text x="385" y="345" font-size="32">studies English.</text>
    <text x="180" y="445" font-size="30">Do?</text>
    <text x="385" y="445" font-size="32">Do you like music?</text>
  </g>
  <circle cx="705" cy="236" r="23" fill="#3d8b7d"/>
  <path d="M694 236 l8 9 l18 -22" fill="none" stroke="#fff" stroke-width="6" stroke-linecap="round" stroke-linejoin="round"/>
  <circle cx="705" cy="336" r="23" fill="#3d8b7d"/>
  <path d="M694 336 l8 9 l18 -22" fill="none" stroke="#fff" stroke-width="6" stroke-linecap="round" stroke-linejoin="round"/>
  <circle cx="705" cy="436" r="23" fill="#e9b949"/>
</svg>
