<?xml version="1.0" encoding="UTF-8"?>
<svg xmlns="http://www.w3.org/2000/svg" viewBox="0 0 600 400" width="600" height="400" role="img" aria-label="Making Weekend Plans">
  <defs>
    <linearGradient id="bg" x1="0" y1="0" x2="0" y2="1">
      <stop offset="0" stop-color="#e4f3e6"/><stop offset="1" stop-color="#bfe3c6"/>
    </linearGradient>
  </defs>
  <rect x="0" y="0" width="600" height="400" rx="24" fill="url(#bg)"/>
  <circle cx="300" cy="170" r="138" fill="#ffffff" opacity="0.35"/>
  
        <g transform="translate(300,170)">
          <ellipse cx="0" cy="96" rx="150" ry="20" fill="#000000" opacity="0.07"/>
          <g transform="translate(-92,-44)">
            <circle r="42" fill="#4c9a6a" stroke="#1d3b5b" stroke-width="4"/>
            <g stroke="#1d3b5b" stroke-width="4" stroke-linecap="round">
              <line x1="0" y1="-58" x2="0" y2="-74"/><line x1="0" y1="58" x2="0" y2="74"/>
              <line x1="-58" y1="0" x2="-74" y2="0"/><line x1="58" y1="0" x2="74" y2="0"/>
              <line x1="-41" y1="-41" x2="-52" y2="-52"/><line x1="41" y1="41" x2="52" y2="52"/>
              <line x1="-41" y1="41" x2="-52" y2="52"/><line x1="41" y1="-41" x2="52" y2="-52"/>
            </g>
          </g>
          <g transform="translate(78,8)">
            <path d="M-34 86 L-26 18 H26 L34 86 Z" fill="#f7fbff" stroke="#1d3b5b" stroke-width="4" stroke-linejoin="round"/>
            <path d="M0 18 C0 -20 -34 -28 -40 -54 C-8 -50 4 -26 0 18 Z" fill="#4c9a6a" stroke="#1d3b5b" stroke-width="3"/>
            <path d="M0 18 C0 -16 30 -30 40 -52 C8 -48 -2 -22 0 18 Z" fill="#6fb98a" stroke="#1d3b5b" stroke-width="3"/>
          </g>
        </g>
  <!-- caption bar -->
  <rect x="0" y="318" width="600" height="82" fill="#1d3b5b" opacity="0.92"/>
  <text x="32" y="352" font-family="'Segoe UI','Hiragino Kaku Gothic ProN','Yu Gothic',sans-serif" font-size="26" font-weight="700" fill="#ffffff">Making Weekend Plans</text>
  <text x="32" y="380" font-family="'Hiragino Kaku Gothic ProN','Yu Gothic',sans-serif" font-size="17" fill="#cfe0f2">週末の予定を立てる</text>
  <!-- theme tag (width fits the label, right-aligned) -->
  <g transform="translate(475,30)">
    <rect x="0" y="-20" width="97" height="30" rx="15" fill="#ffffff" opacity="0.85"/>
    <text x="48.5" y="0" text-anchor="middle" font-family="'Segoe UI',sans-serif" font-size="13" font-weight="700" fill="#4c9a6a">Lifestyle</text>
  </g>
  <!-- placeholder note -->
  <text x="300" y="300" text-anchor="middle" font-family="'Hiragino Kaku Gothic ProN',sans-serif" font-size="12" fill="#1d3b5b" opacity="0.5">差し替え用プレースホルダー / replace freely</text>
</svg>
