<?xml version="1.0" encoding="UTF-8"?>
<svg xmlns="http://www.w3.org/2000/svg" viewBox="0 0 600 400" width="600" height="400" role="img" aria-label="Nice to Meet You">
  <defs>
    <linearGradient id="bg" x1="0" y1="0" x2="0" y2="1">
      <stop offset="0" stop-color="#fde7d6"/><stop offset="1" stop-color="#f7cfa6"/>
    </linearGradient>
  </defs>
  <rect x="0" y="0" width="600" height="400" rx="24" fill="url(#bg)"/>
  <circle cx="300" cy="170" r="138" fill="#ffffff" opacity="0.35"/>
  
        <g transform="translate(300,165)">
          <ellipse cx="0" cy="92" rx="150" ry="20" fill="#000000" opacity="0.07"/>
          <path d="M-120 -30 Q-60 -55 0 -34 Q60 -55 120 -30 L120 60 Q60 38 0 58 Q-60 38 -120 60 Z" fill="#f7fbff" stroke="#1d3b5b" stroke-width="4" stroke-linejoin="round"/>
          <path d="M0 -34 L0 58" stroke="#1d3b5b" stroke-width="4"/>
          <path d="M-100 -16 Q-55 -33 -14 -18 M-100 2 Q-55 -13 -14 0 M-100 20 Q-55 5 -14 18" stroke="#9dc9ed" stroke-width="3" fill="none"/>
          <path d="M100 -16 Q55 -33 14 -18 M100 2 Q55 -13 14 0 M100 20 Q55 5 14 18" stroke="#9dc9ed" stroke-width="3" fill="none"/>
          <g transform="translate(95,-78) rotate(35)">
            <rect x="-8" y="-2" width="16" height="78" rx="4" fill="#e98c4a" stroke="#1d3b5b" stroke-width="3"/>
            <polygon points="-8,76 8,76 0,94" fill="#ffe3a8" stroke="#1d3b5b" stroke-width="3"/>
            <polygon points="-3,88 3,88 0,94" fill="#1d3b5b"/>
          </g>
          <g transform="translate(-110,-58)">
            <circle r="22" fill="#e0726a" stroke="#1d3b5b" stroke-width="3"/>
            <path d="M0 -22 Q6 -34 16 -30" stroke="#4c9a6a" stroke-width="4" fill="none"/>
          </g>
        </g>
  <!-- caption bar -->
  <rect x="0" y="318" width="600" height="82" fill="#1d3b5b" opacity="0.92"/>
  <text x="32" y="352" font-family="'Segoe UI','Hiragino Kaku Gothic ProN','Yu Gothic',sans-serif" font-size="26" font-weight="700" fill="#ffffff">Nice to Meet You</text>
  <text x="32" y="380" font-family="'Hiragino Kaku Gothic ProN','Yu Gothic',sans-serif" font-size="17" fill="#cfe0f2">はじめまして（自己紹介）</text>
  <!-- theme tag (width fits the label, right-aligned) -->
  <g transform="translate(499,30)">
    <rect x="0" y="-20" width="73" height="30" rx="15" fill="#ffffff" opacity="0.85"/>
    <text x="36.5" y="0" text-anchor="middle" font-family="'Segoe UI',sans-serif" font-size="13" font-weight="700" fill="#e98c4a">School</text>
  </g>
  <!-- placeholder note -->
  <text x="300" y="300" text-anchor="middle" font-family="'Hiragino Kaku Gothic ProN',sans-serif" font-size="12" fill="#1d3b5b" opacity="0.5">差し替え用プレースホルダー / replace freely</text>
</svg>
