<?xml version="1.0" encoding="UTF-8"?>
<svg xmlns="http://www.w3.org/2000/svg" viewBox="0 0 600 400" width="600" height="400" role="img" aria-label="Writing Basics">
  <defs><linearGradient id="bg" x1="0" y1="0" x2="0" y2="1"><stop offset="0" stop-color="#e2f0ed"/><stop offset="1" stop-color="#bfe0d8"/></linearGradient></defs>
  <rect x="0" y="0" width="600" height="400" rx="24" fill="url(#bg)"/>
  <circle cx="300" cy="170" r="138" fill="#ffffff" opacity="0.35"/>
  <g transform="translate(300,170)"><ellipse cx="0" cy="92" rx="150" ry="20" fill="#000000" opacity="0.07"/><path d="M-120 -20 Q-60 -42 0 -24 Q60 -42 120 -20 L120 60 Q60 40 0 58 Q-60 40 -120 60 Z" fill="#f7fbff" stroke="#1d3b5b" stroke-width="4" stroke-linejoin="round"/><path d="M0 -24 L0 58" stroke="#1d3b5b" stroke-width="4"/><path d="M-66 -78 a66 66 0 0 1 132 0 v8 a12 12 0 0 1 -24 0 v-8 a42 42 0 0 0 -84 0 v8 a12 12 0 0 1 -24 0 Z" fill="#3d8b7d" stroke="#1d3b5b" stroke-width="4" stroke-linejoin="round"/></g>
  <rect x="0" y="318" width="600" height="82" fill="#1d3b5b" opacity="0.92"/>
  <text x="32" y="352" font-family="'Segoe UI','Hiragino Kaku Gothic ProN','Yu Gothic',sans-serif" font-size="26" font-weight="700" fill="#ffffff">Writing Basics</text>
  <text x="32" y="380" font-family="'Hiragino Kaku Gothic ProN','Yu Gothic',sans-serif" font-size="17" fill="#cfe0f2">英作文の基礎</text>
  <g transform="translate(450,30)"><rect x="0" y="-20" width="122" height="30" rx="15" fill="#ffffff" opacity="0.85"/>
    <text x="61.0" y="0" text-anchor="middle" font-family="'Segoe UI',sans-serif" font-size="13" font-weight="700" fill="#3d8b7d">Study Skills</text></g>
  <text x="300" y="300" text-anchor="middle" font-family="'Hiragino Kaku Gothic ProN',sans-serif" font-size="12" fill="#1d3b5b" opacity="0.5">差し替え用プレースホルダー / replace freely</text>
</svg>
