<?xml version="1.0" encoding="UTF-8"?>
<svg xmlns="http://www.w3.org/2000/svg" viewBox="0 0 400 400" width="400" height="400" role="img" aria-label="Theo robot tutor">
  <defs>
    <radialGradient id="bgTheo" cx="0.5" cy="0.38" r="0.72">
      <stop offset="0" stop-color="#edf8f5"/>
      <stop offset="1" stop-color="#c4ded6"/>
    </radialGradient>
    <linearGradient id="metalTheo" x1="0" y1="0" x2="0" y2="1">
      <stop offset="0" stop-color="#f9fbfb"/>
      <stop offset="0.56" stop-color="#dfe8e7"/>
      <stop offset="1" stop-color="#b9c9c7"/>
    </linearGradient>
    <linearGradient id="tealTheo" x1="0" y1="0" x2="1" y2="1">
      <stop offset="0" stop-color="#4ca393"/>
      <stop offset="1" stop-color="#2f6d62"/>
    </linearGradient>
    <clipPath id="cTheo"><circle cx="200" cy="200" r="188"/></clipPath>
  </defs>

  <circle cx="200" cy="200" r="188" fill="url(#bgTheo)"/>
  <circle cx="200" cy="200" r="188" fill="none" stroke="#94c2b6" stroke-width="4" opacity="0.5"/>

  <g clip-path="url(#cTheo)" stroke-linecap="round" stroke-linejoin="round">
    <path d="M70 400 C82 318 132 275 200 275 C268 275 318 318 330 400 Z"
          fill="#eff5f4" stroke="#adc5c0" stroke-width="3"/>
    <path d="M132 314 C160 337 240 337 268 314 L254 400 L146 400 Z"
          fill="url(#tealTheo)" stroke="#25594f" stroke-width="3"/>

    <line x1="200" y1="64" x2="200" y2="38" stroke="#2f6d62" stroke-width="7"/>
    <circle cx="200" cy="31" r="12" fill="#e9b949" stroke="#b58122" stroke-width="4"/>

    <rect x="98" y="78" width="204" height="204" rx="58"
          fill="url(#metalTheo)" stroke="#7fa69f" stroke-width="5"/>
    <rect x="119" y="103" width="162" height="112" rx="34"
          fill="#f8fffd" stroke="#a8bfbb" stroke-width="3"/>
    <path d="M120 238 C146 266 254 266 280 238" stroke="#cad9d6" stroke-width="10" fill="none" opacity="0.75"/>

    <rect x="70" y="154" width="35" height="66" rx="16" fill="#d2dfdd" stroke="#7fa69f" stroke-width="4"/>
    <rect x="295" y="154" width="35" height="66" rx="16" fill="#d2dfdd" stroke="#7fa69f" stroke-width="4"/>
    <circle cx="88" cy="186" r="7" fill="#4ca393"/>
    <circle cx="312" cy="186" r="7" fill="#4ca393"/>

    <rect x="138" y="142" width="50" height="36" rx="17" fill="#ffffff" stroke="#2f6d62" stroke-width="4"/>
    <rect x="212" y="142" width="50" height="36" rx="17" fill="#ffffff" stroke="#2f6d62" stroke-width="4"/>
    <line x1="188" y1="160" x2="212" y2="160" stroke="#2f6d62" stroke-width="4"/>
    <circle cx="163" cy="160" r="9" fill="#2f6d62"/>
    <circle cx="237" cy="160" r="9" fill="#2f6d62"/>
    <circle cx="166" cy="157" r="2.5" fill="#ffffff"/>
    <circle cx="240" cy="157" r="2.5" fill="#ffffff"/>

    <path d="M154 118 C168 110 184 110 195 118 M205 118 C218 110 234 110 246 118"
          stroke="#6a8580" stroke-width="5" fill="none"/>
    <path d="M179 203 C190 213 210 213 221 203" stroke="#2f6d62" stroke-width="5" fill="none"/>
    <circle cx="200" cy="191" r="5" fill="#e9b949" stroke="#b58122" stroke-width="2"/>

    <path d="M147 282 L177 329 L200 301 L223 329 L253 282"
          fill="#ffffff" stroke="#c3d0ce" stroke-width="3"/>
    <path d="M184 307 L200 291 L216 307 L209 362 L200 380 L191 362 Z"
          fill="#2f6d62" stroke="#25594f" stroke-width="3"/>
    <path d="M159 350 H181 M219 350 H241" stroke="#dfe8e7" stroke-width="5"/>
  </g>
</svg>
