<?xml version="1.0" encoding="UTF-8"?>
<svg xmlns="http://www.w3.org/2000/svg" viewBox="0 0 400 400" width="400" height="400" role="img" aria-label="Vivi cat tutor">
  <defs>
    <radialGradient id="bgVivi" cx="0.5" cy="0.38" r="0.72">
      <stop offset="0" stop-color="#edf5ff"/>
      <stop offset="1" stop-color="#c7d8ec"/>
    </radialGradient>
    <linearGradient id="furVivi" x1="0" y1="0" x2="0" y2="1">
      <stop offset="0" stop-color="#fbfdff"/>
      <stop offset="0.55" stop-color="#e6edf8"/>
      <stop offset="1" stop-color="#c8d7ea"/>
    </linearGradient>
    <linearGradient id="scarfVivi" x1="0" y1="0" x2="1" y2="1">
      <stop offset="0" stop-color="#7fb0e0"/>
      <stop offset="1" stop-color="#3f78c0"/>
    </linearGradient>
    <clipPath id="cVivi"><circle cx="200" cy="200" r="188"/></clipPath>
  </defs>

  <circle cx="200" cy="200" r="188" fill="url(#bgVivi)"/>
  <circle cx="200" cy="200" r="188" fill="none" stroke="#9db8d6" stroke-width="4" opacity="0.5"/>

  <g clip-path="url(#cVivi)" stroke-linecap="round" stroke-linejoin="round">
    <path d="M72 400 C82 318 130 272 200 272 C270 272 318 318 328 400 Z"
          fill="#f3f6fb" stroke="#b9c6d6" stroke-width="3"/>
    <path d="M132 302 C156 332 244 332 268 302 L252 400 L148 400 Z"
          fill="#e8eef8" stroke="#c6d2e1" stroke-width="3"/>

    <path d="M137 120 L104 50 L171 91 Z" fill="url(#furVivi)" stroke="#9fb5ce" stroke-width="4"/>
    <path d="M263 120 L296 50 L229 91 Z" fill="url(#furVivi)" stroke="#9fb5ce" stroke-width="4"/>
    <path d="M132 104 L115 67 L151 91 Z" fill="#f5c7cf" opacity="0.78"/>
    <path d="M268 104 L285 67 L249 91 Z" fill="#f5c7cf" opacity="0.78"/>

    <path d="M103 172 C103 111 145 77 200 77 C255 77 297 111 297 172
             C297 238 253 282 200 282 C147 282 103 238 103 172 Z"
          fill="url(#furVivi)" stroke="#9fb5ce" stroke-width="4"/>
    <path d="M124 178 C132 130 161 103 200 103 C239 103 268 130 276 178
             C257 148 229 134 200 134 C171 134 143 148 124 178 Z"
          fill="#d6e4f4" opacity="0.72"/>
    <path d="M181 78 C173 104 176 126 190 143 M219 78 C227 104 224 126 210 143"
          stroke="#b8c9dd" stroke-width="8" opacity="0.6" fill="none"/>

    <ellipse cx="154" cy="196" rx="17" ry="10" fill="#f1a8b2" opacity="0.38"/>
    <ellipse cx="246" cy="196" rx="17" ry="10" fill="#f1a8b2" opacity="0.38"/>
    <path d="M143 156 C154 148 169 148 180 156" stroke="#506070" stroke-width="5" fill="none"/>
    <path d="M220 156 C231 148 246 148 257 156" stroke="#506070" stroke-width="5" fill="none"/>
    <path d="M142 171 C153 160 171 160 183 171 C180 188 162 190 149 183 C145 180 142 176 142 171 Z" fill="#ffffff"/>
    <path d="M217 171 C229 160 247 160 258 171 C255 188 237 190 224 183 C220 180 217 176 217 171 Z" fill="#ffffff"/>
    <ellipse cx="163" cy="174" rx="8" ry="13" fill="#4a7fbf"/>
    <ellipse cx="237" cy="174" rx="8" ry="13" fill="#4a7fbf"/>
    <ellipse cx="163" cy="174" rx="4" ry="8" fill="#26303e"/>
    <ellipse cx="237" cy="174" rx="4" ry="8" fill="#26303e"/>
    <circle cx="166" cy="169" r="2.3" fill="#fff"/>
    <circle cx="240" cy="169" r="2.3" fill="#fff"/>

    <path d="M192 194 C196 190 204 190 208 194 L200 203 Z" fill="#df8fa0" stroke="#b96f82" stroke-width="2"/>
    <path d="M200 203 L200 214" stroke="#7d6970" stroke-width="2.5"/>
    <path d="M184 218 C193 228 207 228 216 218" stroke="#8b5d68" stroke-width="3" fill="none"/>
    <path d="M119 205 C93 198 75 198 54 207 M119 220 C93 224 75 232 57 245"
          stroke="#9aa9bb" stroke-width="3" fill="none"/>
    <path d="M281 205 C307 198 325 198 346 207 M281 220 C307 224 325 232 343 245"
          stroke="#9aa9bb" stroke-width="3" fill="none"/>

    <path d="M144 284 C171 301 229 301 256 284 L269 323 C238 347 162 347 131 323 Z"
          fill="url(#scarfVivi)" stroke="#356cad" stroke-width="3"/>
    <path d="M190 305 L211 305 L207 365 L200 382 L193 365 Z" fill="#ffffff" opacity="0.95"/>
    <circle cx="200" cy="319" r="5" fill="#356cad"/>
    <circle cx="200" cy="342" r="5" fill="#356cad"/>
  </g>
</svg>
